# File created by Blade
# Date/Time:  Mon Sep 22 15:50:36 2014
# Frame Rate: 120.000 fps
#------------------------------------------------------
:FULLY-SPECIFIED
:DEGREES
1014
root 2.331843 36.945381 3.538232 -3.638273 -8.356386 1.175574
RightUpLeg 11.314110 -1.473797 -3.738987
RightLeg -4.475288 -0.000000 0.000000
RightFoot -12.797311 -14.211594 15.368261
RightToeBase 14.764684 -0.000000 -0.000000
LeftUpLeg 12.601921 6.190845 1.859179
LeftLeg -3.879725 -0.000000 0.000000
LeftFoot -11.380153 14.777716 -17.379715
LeftToeBase 9.303695 -0.000000 -0.000000
Spine 1.983093 -31.873878 -4.167064
RightShoulder 12.444669 -25.102450 -7.496097
RightArm 38.486765 -38.228734 47.685761
RightForeArm 10.385913 -0.000000 29.001169
RightHand 2.830445 -0.000000 1.960899
RightHandThumb1 -24.326973 -0.000000 -32.862282
LeftShoulder 9.896091 21.012368 27.582462
LeftArm 70.693432 -20.729310 -12.956605
LeftForeArm -52.152297 -0.000000 104.758828
LeftHand -24.823934 -0.000000 -7.724658
LeftHandThumb1 -26.253704 0.000000 33.147579
Head 1.441169 26.781273 10.729323
1015
root 2.319893 36.945875 3.533614 -3.657921 -8.356327 1.196838
RightUpLeg 11.338987 -1.526831 -3.750568
RightLeg -4.502850 -0.000000 0.000000
RightFoot -12.785343 -14.159862 15.354137
RightToeBase 14.781826 -0.000000 -0.000000
LeftUpLeg 12.572035 6.132285 1.848423
LeftLeg -3.797150 -0.000000 0.000000
LeftFoot -11.434189 14.817024 -17.435221
LeftToeBase 9.387335 -0.000000 -0.000000
Spine 2.033794 -31.690046 -4.340393
RightShoulder 12.445370 -25.057739 -7.592397
RightArm 38.170450 -38.070901 48.269198
RightForeArm 10.548132 -0.000000 28.918715
RightHand 2.912586 -0.000000 1.646588
RightHandThumb1 -24.326973 -0.000000 -32.862282
LeftShoulder 9.983046 20.663154 27.617908
LeftArm 70.718944 -21.063657 -14.497703
LeftForeArm -52.768633 -0.000000 105.124162
LeftHand -24.292718 -0.000000 -7.100245
LeftHandThumb1 -26.253704 0.000000 33.147579
Head 1.472088 26.526969 10.886188
1016
root 2.307658 36.947046 3.528292 -3.646557 -8.351823 1.203410
RightUpLeg 11.331320 -1.569444 -3.743715
RightLeg -4.521531 -0.000000 0.000000
RightFoot -12.755705 -14.128873 15.332071
RightToeBase 14.711695 -0.000000 -0.000000
LeftUpLeg 12.516635 6.085085 1.851394
LeftLeg -3.725843 -0.000000 0.000000
LeftFoot -11.460277 14.850325 -17.455501
LeftToeBase 9.354784 -0.000000 -0.000000
Spine 2.042160 -31.544416 -4.494546
RightShoulder 12.456697 -25.028005 -7.679346
RightArm 37.992440 -38.011265 48.631704
RightForeArm 10.849048 -0.000000 28.859387
RightHand 2.888252 -0.000000 1.277942
RightHandThumb1 -24.326973 -0.000000 -32.862282
LeftShoulder 9.963480 20.674716 27.559908
LeftArm 70.983703 -21.814593 -16.127081
LeftForeArm -53.305502 -0.000000 105.368900
LeftHand -23.829972 -0.000000 -6.642678
LeftHandThumb1 -26.253704 0.000000 33.147579
Head 1.548158 26.297784 11.102599
1017
root 2.295710 36.949031 3.522064 -3.620903 -8.355177 1.211003
RightUpLeg 11.301481 -1.598601 -3.736695
RightLeg -4.529540 -0.000000 0.000000
RightFoot -12.736429 -14.094935 15.324380
RightToeBase 14.733332 -0.000000 -0.000000
LeftUpLeg 12.446545 6.069058 1.858093
LeftLeg -3.652211 -0.000000 0.000000
LeftFoot -11.484104 14.844921 -17.487597
LeftToeBase 9.382834 -0.000000 -0.000000
Spine 2.031061 -31.424380 -4.629181
RightShoulder 12.482379 -25.029032 -7.821199
RightArm 37.919719 -37.937019 48.973209
RightForeArm 11.174783 -0.000000 28.733626
RightHand 2.932948 -0.000000 1.062900
RightHandThumb1 -24.326973 -0.000000 -32.862282
LeftShoulder 9.959038 20.487841 27.513679
LeftArm 71.192157 -22.388714 -17.977083
LeftForeArm -53.820251 -0.000000 105.672249
LeftHand -23.319169 0.000000 -6.057194
LeftHandThumb1 -26.253704 0.000000 33.147579
Head 1.625464 26.061434 11.276988
1018
root 2.283665 36.951396 3.515527 -3.577461 -8.360564 1.218827
RightUpLeg 11.242041 -1.643698 -3.729109
RightLeg -4.517528 -0.000000 0.000000
RightFoot -12.724616 -14.062824 15.294615
RightToeBase 14.741039 -0.000000 -0.000000
LeftUpLeg 12.364051 6.100195 1.870513
LeftLeg -3.592437 -0.000000 0.000000
LeftFoot -11.476287 14.814486 -17.516670
LeftToeBase 9.341692 -0.000000 -0.000000
Spine 1.981964 -31.336568 -4.734399
RightShoulder 12.527727 -24.962764 -7.958033
RightArm 37.864584 -37.971744 49.212070
RightForeArm 11.511124 0.000000 28.616419
RightHand 2.953857 -0.000000 0.961546
RightHandThumb1 -24.326973 -0.000000 -32.862282
LeftShoulder 9.917389 20.257886 27.406286
LeftArm 71.418189 -22.990209 -19.945293
LeftForeArm -54.394867 -0.000000 105.946454
LeftHand -22.776282 0.000000 -5.584190
LeftHandThumb1 -26.253704 0.000000 33.147579
Head 1.730371 25.911551 11.431153
1019
root 2.271950 36.954743 3.507889 -3.510185 -8.376470 1.220711
RightUpLeg 11.153769 -1.644441 -3.709647
RightLeg -4.499795 -0.000000 0.000000
RightFoot -12.705720 -14.049072 15.282834
RightToeBase 14.756507 -0.000000 -0.000000
LeftUpLeg 12.264321 6.129047 1.885006
LeftLeg -3.545377 -0.000000 0.000000
LeftFoot -11.461815 14.793744 -17.541434
LeftToeBase 9.350660 -0.000000 -0.000000
Spine 1.905060 -31.358837 -4.813906
RightShoulder 12.684368 -24.837359 -8.157072
RightArm 37.807417 -38.053172 49.440253
RightForeArm 11.666976 -0.000000 28.526223
RightHand 2.896656 0.000000 0.897291
RightHandThumb1 -24.326973 -0.000000 -32.862282
LeftShoulder 9.744624 20.085492 27.261521
LeftArm 71.732958 -23.627821 -22.112337
LeftForeArm -54.811707 -0.000000 106.155934
LeftHand -22.090627 -0.000000 -5.163709
LeftHandThumb1 -26.253704 0.000000 33.147579
Head 1.828103 25.800809 11.526247
